<svg width="1593" height="1740" viewBox="0 0 1593 1740" fill="none" xmlns="http://www.w3.org/2000/svg">
<g id="g3027">
<path id="path3029" d="M128 1612H416V1324H128V1612ZM480 1612H800V1324H480V1612ZM128 1260H416V940H128V1260ZM480 1260H800V940H480V1260ZM128 876H416V588H128V876ZM864 1612H1184V1324H864V1612ZM480 876H800V588H480V876ZM1248 1612H1536V1324H1248V1612ZM864 1260H1184V940H864V1260ZM512 396V108C512 99.3333 508.833 91.8333 502.5 85.5C496.167 79.1667 488.667 76 480 76H416C407.333 76 399.833 79.1667 393.5 85.5C387.167 91.8333 384 99.3333 384 108V396C384 404.667 387.167 412.167 393.5 418.5C399.833 424.833 407.333 428 416 428H480C488.667 428 496.167 424.833 502.5 418.5C508.833 412.167 512 404.667 512 396ZM1248 1260H1536V940H1248V1260ZM864 876H1184V588H864V876ZM1248 876H1536V588H1248V876ZM1280 396V108C1280 99.3333 1276.83 91.8333 1270.5 85.5C1264.17 79.1667 1256.67 76 1248 76H1184C1175.33 76 1167.83 79.1667 1161.5 85.5C1155.17 91.8333 1152 99.3333 1152 108V396C1152 404.667 1155.17 412.167 1161.5 418.5C1167.83 424.833 1175.33 428 1184 428H1248C1256.67 428 1264.17 424.833 1270.5 418.5C1276.83 412.167 1280 404.667 1280 396ZM1664 332V1612C1664 1646.67 1651.33 1676.67 1626 1702C1600.67 1727.33 1570.67 1740 1536 1740H128C93.3333 1740 63.3333 1727.33 38 1702C12.6667 1676.67 0 1646.67 0 1612V332C0 297.333 12.6667 267.333 38 242C63.3333 216.667 93.3333 204 128 204H256V108C256 64 271.667 26.3333 303 -5C334.333 -36.3333 372 -52 416 -52H480C524 -52 561.667 -36.3333 593 -5C624.333 26.3333 640 64 640 108V204H1024V108C1024 64 1039.67 26.3333 1071 -5C1102.33 -36.3333 1140 -52 1184 -52H1248C1292 -52 1329.67 -36.3333 1361 -5C1392.33 26.3333 1408 64 1408 108V204H1536C1570.67 204 1600.67 216.667 1626 242C1651.33 267.333 1664 297.333 1664 332Z" fill="#354492"/>
</g>
</svg>
