<svg width="300" height="300" viewBox="0 0 300 300" fill="none" xmlns="http://www.w3.org/2000/svg">
<g id="Time-long-icon 1">
<g id="g3769">
<path id="circle3753" d="M150 76.9188C170.152 76.9188 189.783 83.3133 206.069 95.1818C222.355 107.05 234.454 123.781 240.626 142.964C246.797 162.147 246.722 182.794 240.411 201.932C234.101 221.07 221.88 237.712 205.508 249.461C189.137 261.211 169.459 267.463 149.308 267.316C129.157 267.17 109.572 260.633 93.3729 248.646L150 172.119V76.9188Z" fill="#354492"/>
<path id="path3741" d="M169.875 7.62501V27.6875C169.876 28.0735 169.8 28.4558 169.653 28.8126C169.506 29.1694 169.289 29.4935 169.016 29.7665C168.744 30.0394 168.419 30.2558 168.063 30.4031C167.706 30.5504 167.323 30.6258 166.937 30.625H164.687V40.375C159.811 39.8206 154.907 39.5493 150 39.5625C145.659 39.551 141.32 39.7596 137 40.1875V30.625H134.813C134.427 30.6258 134.044 30.5504 133.687 30.4031C133.331 30.2558 133.006 30.0394 132.734 29.7665C132.461 29.4935 132.244 29.1694 132.097 28.8126C131.95 28.4558 131.874 28.0735 131.875 27.6875V7.62501C131.874 7.23902 131.95 6.85667 132.097 6.4999C132.244 6.14313 132.461 5.81898 132.734 5.54604C133.006 5.27311 133.331 5.05676 133.687 4.90943C134.044 4.7621 134.427 4.68668 134.813 4.68751H166.937C167.323 4.68668 167.706 4.7621 168.063 4.90943C168.419 5.05676 168.744 5.27311 169.016 5.54604C169.289 5.81898 169.506 6.14313 169.653 6.4999C169.8 6.85667 169.876 7.23902 169.875 7.62501Z" fill="#354492"/>
<path id="path3743" d="M73.9374 63.6875C68.0162 67.7659 62.4732 72.3678 57.375 77.4375L53.75 72.875L52.875 73.625C52.2676 74.1081 51.4946 74.333 50.7229 74.2512C49.9511 74.1693 49.2425 73.7873 48.75 73.1875L42.125 65.125C41.8719 64.8302 41.6818 64.4868 41.5664 64.1159C41.4509 63.745 41.4124 63.3544 41.4534 62.9681C41.4944 62.5818 41.6139 62.2079 41.8046 61.8695C41.9953 61.531 42.2532 61.2351 42.5625 61L60.9375 46.125C61.5449 45.6419 62.3178 45.417 63.0896 45.4988C63.8613 45.5807 64.5699 45.9627 65.0625 46.5625L71.6874 54.5625C71.9404 54.8632 72.1302 55.2119 72.2454 55.5876C72.3606 55.9633 72.3989 56.3583 72.3581 56.7492C72.3173 57.14 72.1981 57.5186 72.0077 57.8624C71.8173 58.2062 71.5596 58.508 71.2499 58.75L70.4375 59.375L73.9374 63.6875Z" fill="#354492"/>
<path id="path3745" d="M259.5 65.125L252.938 73.1875C252.444 73.7859 251.736 74.1669 250.964 74.2487C250.193 74.3305 249.421 74.1066 248.813 73.625L247.938 72.875L243.563 78.3125C238.541 73.2821 233.105 68.6826 227.312 64.5625L231.187 59.375L230.375 58.75C229.775 58.2438 229.395 57.525 229.313 56.7444C229.231 55.9637 229.455 55.1818 229.937 54.5625L236.562 46.5625C237.055 45.9627 237.764 45.5807 238.535 45.4988C239.307 45.417 240.08 45.6419 240.687 46.125L259.125 61C259.424 61.2435 259.672 61.5444 259.854 61.885C260.035 62.2256 260.147 62.5991 260.182 62.9835C260.217 63.3679 260.174 63.7553 260.057 64.1231C259.94 64.4909 259.751 64.8315 259.5 65.125Z" fill="#354492"/>
<path id="path3747" d="M150.85 164.675C149.376 164.675 147.936 165.112 146.71 165.931C145.485 166.75 144.53 167.914 143.966 169.275C143.403 170.637 143.256 172.135 143.544 173.581C143.832 175.026 144.542 176.354 145.584 177.395C146.627 178.437 147.955 179.146 149.4 179.433C150.846 179.719 152.344 179.571 153.705 179.006C155.067 178.441 156.23 177.485 157.047 176.259C157.865 175.033 158.301 173.593 158.3 172.119C158.295 170.145 157.508 168.254 156.112 166.859C154.716 165.463 152.824 164.678 150.85 164.675Z" fill="#354492"/>
<path id="path3751" d="M150 48.925C125.635 48.925 101.816 56.1502 81.5572 69.6869C61.2981 83.2236 45.508 102.464 36.1838 124.975C26.8595 147.485 24.4199 172.255 29.1733 196.153C33.9268 220.05 45.6599 242.001 62.8888 259.23C80.1178 276.459 102.069 288.192 125.966 292.945C149.863 297.699 174.633 295.259 197.144 285.935C219.655 276.611 238.895 260.821 252.432 240.562C265.969 220.302 273.194 196.484 273.194 172.119C273.194 155.941 270.007 139.921 263.816 124.975C257.625 110.028 248.551 96.4472 237.111 85.0076C225.671 73.568 212.091 64.4936 197.144 58.3026C182.198 52.1115 166.178 48.925 150 48.925ZM240.694 224.481C240.662 224.531 240.606 224.544 240.575 224.594C231.395 240.367 218.275 253.485 202.5 262.662C202.437 262.706 202.406 262.775 202.337 262.813C202.269 262.85 202.244 262.813 202.206 262.85C186.343 272.069 168.322 276.925 149.975 276.925C131.627 276.925 113.607 272.069 97.7437 262.85C97.7062 262.85 97.6562 262.85 97.6124 262.813C97.5687 262.775 97.5124 262.706 97.4499 262.662C81.6845 253.481 68.5733 240.364 59.4 224.594C59.4 224.544 59.3125 224.531 59.2812 224.481C59.25 224.431 59.2812 224.369 59.225 224.313C50.0205 208.46 45.1723 190.456 45.1723 172.125C45.1723 153.794 50.0205 135.79 59.225 119.938C59.225 119.881 59.225 119.825 59.2812 119.769C59.3375 119.713 59.3874 119.669 59.4312 119.6C68.6175 103.845 81.7345 90.7432 97.5 81.575C97.5625 81.5313 97.5937 81.4625 97.6625 81.425C97.7312 81.3875 97.775 81.425 97.8312 81.3688C113.685 72.168 131.689 67.322 150.019 67.322C168.349 67.322 186.353 72.168 202.206 81.3688C202.262 81.3688 202.319 81.3688 202.375 81.425C202.431 81.4813 202.475 81.5313 202.537 81.575C218.283 90.7466 231.382 103.843 240.556 119.588C240.6 119.656 240.669 119.688 240.706 119.756C240.744 119.825 240.706 119.869 240.762 119.925C249.967 135.777 254.815 153.782 254.815 172.113C254.815 190.443 249.967 208.448 240.762 224.3C240.719 224.375 240.725 224.431 240.694 224.481Z" fill="#354492"/>
</g>
</g>
</svg>
