<svg width="1000" height="1000" viewBox="0 0 1000 1000" fill="none" xmlns="http://www.w3.org/2000/svg">
<g id="a5bfb045c3d63edf116e9ae14c9b82f5 1">
<g id="Group">
<path id="Vector" d="M285.6 349.8V742.1C285.6 786 321.2 821.6 365.1 821.6H591.9L592.7 852.2H575.3C530.6 852.2 479.4 876.3 470.1 898.9C468.7 902.1 469.2 905.9 471.1 908.8C473.1 911.7 476.4 913.5 480 913.5H795.4C799 913.5 802.3 911.7 804.3 908.8C806.3 905.9 806.7 902.2 805.4 898.9C796.2 876.3 744.9 852.2 700.2 852.2H683.6V821.6H910.4C954.3 821.6 989.9 786 989.9 742.1V349.8C989.9 305.9 954.3 270.3 910.4 270.3H365.1C321.2 270.3 285.6 305.9 285.6 349.8ZM435.7 775.6C435.7 765.4 443.9 757.2 454.1 757.2C464.3 757.2 472.5 765.4 472.5 775.6C472.5 785.8 464.3 794 454.1 794C443.9 794 435.7 785.8 435.7 775.6ZM377.5 375.5C377.5 368.2 383.4 362.2 390.8 362.2H884.9C892.2 362.2 898.1 368.1 898.1 375.5V716.5C898.1 723.8 892.2 729.7 884.9 729.7H390.8C383.5 729.7 377.5 723.8 377.5 716.5V375.5ZM10 178.4V821.5C10 872.2 51.1 913.4 101.9 913.4H346.9C386.9 913.4 420.5 887.8 433.1 852.2H365.1C285.6 852.2 255 821.6 255 742.1V331.6H101.9V301H255C283.1 246.1 316.2 239.8 365.1 239.8H438.8V178.6C438.8 127.9 397.7 86.7 346.9 86.7H101.9C51.1 86.6 10 127.7 10 178.4ZM128 699.1C128 679.7 143.7 663.9 163.2 663.9C182.7 663.9 198.4 679.7 198.4 699.1C198.4 718.6 182.7 734.3 163.2 734.3C143.7 734.3 128 718.5 128 699.1ZM101.9 392.8H163.1V423.4H101.9V392.8ZM101.9 209.1H346.9V239.7H101.9V209.1Z" fill="#354492"/>
</g>
</g>
</svg>
